<?xml version="1.0" encoding="utf-8"?>
<!-- Generator: Adobe Illustrator 19.2.1, SVG Export Plug-In . SVG Version: 6.00 Build 0)  -->
<svg version="1.1" id="layer" xmlns="http://www.w3.org/2000/svg" xmlns:xlink="http://www.w3.org/1999/xlink" x="0px" y="0px"
	 viewBox="0 0 652 652" style="enable-background:new 0 0 652 652;" xml:space="preserve">
<style type="text/css">
	.st0{fill:#171717;}
	.st1{fill:#A7A9AC;}
</style>
<g>
	<g>
		<g>
			<path class="st0" d="M39.2,327.8c0.3-0.3,4.7,17.7,29.3,14.5C63.7,330.7,48.4,323,45,322.8c0.8-0.5,5-3.7,5.8-4.2
				c-1.1,3.2,13.2,16.4,24.3,12.7c-2.9-9-15-16.6-18.2-16.6c1.3-0.8,2.6-1.6,4-2.4c-0.8,1.6,9.8,11.9,20.8,11.1
				c0-5.3-11.9-15.3-14.2-14.5c1.1-0.5,2.9-1.6,3.4-1.8c1.6,3.7,11.9,11.3,19,10.3c-5.8-12.4-13.2-12.9-13.2-12.9
				c1.8-1.1,3.2-1.6,3.4-1.6c0,3.2,10.3,10.8,17.2,9c-1.3-5.5-7.1-10.8-12.4-11.3c1.3-0.5,2.6-1.3,3.7-1.8
				c-0.5,1.1,7.9,8.2,16.1,7.7c-4-9.5-9.2-9.8-11.3-10c1.1-0.5,2.4-1.1,3.4-1.8c0.5,1.3,5,7.4,15.6,5.8c-2.6-5.8-8.4-7.7-11.3-7.9
				c1.6-0.8,2.6-1.3,3.7-1.8c0.8,0.8,3.4,6.6,14.2,4.5c-2.4-5.5-7.4-6.9-9.2-7.1c0.8-0.5,2.1-1.1,2.6-1.6c0.8,1.3,6.3,5.3,12.1,3.7
				c-1.1-3.4-5.3-5.3-9.2-5.5c1.6-1.1,3.2-2.1,3.2-2.1c0.5,1.3,3.7,4.5,11.3,2.4c-2.4-4.7-8.7-4.2-8.7-4.2c1.6-1.1,1.8-1.6,3.2-2.4
				c0,0,3.7,5,9.8,1.6c-1.8-2.9-4.5-4.2-7.4-3.4c0.8-0.8,1.6-1.3,2.1-2.1c-0.3,0.8,4.5,3.2,8.7,0c-2.1-1.8-4.2-2.4-6.6-2.4
				c1.1-1.1,1.3-1.1,1.8-1.8c0,0,3.7,2.9,7.4-0.8c-2.9-2.1-6.3-0.8-6.3-0.8l1.3-2.1c0.5,0.8,4.7,1.6,6.1-1.1
				c-1.1-1.1-4.7-0.8-5.3-0.5c0,0,0.5-0.8,0.8-1.3c7.7,0.8,5-7.9,3.2-12.9c-28.2,43.5-66.2,12.7-112.4,40.1
				c-2.1,5.5-2.9,11.6-2.4,17.7c0,0.5,0,1.1,0.3,2.4c0,0.5,0.5,3.7,1.8,7.4c0.8,2.6,1.8,4.5,3.2,7.1c0.8-0.5,1.3-1.1,1.8-1.6
				c-2.1-2.9-9-20.8-0.3-31.1c8.2-0.3,9.2,23.5,7.7,25.9c0,0,4-2.6,5.3-3.4c-1.8-0.8-7.9-21.1,2.4-29.6c0,0,9.2,3.4,5.3,25.1
				c1.6-1.1,3.7-1.8,6.1-3.2c-1.1-2.1-7.4-17.4,2.6-25.6c5.5,2.1,5.3,19,2.9,22.7c1.8-0.8,3.7-1.8,5.3-2.6
				c-3.2-1.6-2.9-17.4,2.4-21.6c6.1,5.5,4.5,15,2.9,19.3l4.5-1.8c-3.7-6.9-1.8-14.8,1.8-18.2c2.9,1.8,3.7,7.4,2.4,16.4
				c1.3-0.5,2.1-0.8,3.2-1.3c-0.8-1.6-2.9-10.6,2.4-15.6c4.7,2.4,3.2,12.4,2.6,13.5l2.6-1.1c-1.1-2.1-1.6-9.5,2.6-13.2
				c1.8,1.3,3.4,4.7,1.8,11.1c1.1-0.5,2.1-1.1,3.2-1.3c-1.6-1.6-0.5-8.2,1.8-10.8c2.6,1.1,3.7,6.9,2.9,8.7c0.5-0.3,1.6-0.8,2.6-1.3
				c-0.8-1.3-1.1-7.7,1.6-9.2c2.6,1.8,2.4,6.3,2.1,7.4c0.8-0.5,2.9-1.6,2.9-1.6c-1.3-1.3-2.1-5.3,1.1-7.9c2.6,0.5,2.6,5.5,2.4,5.8
				c1.1-0.8,2.6-1.8,3.4-2.4c-2.4-0.5-2.1-4.5-0.8-6.1c1.6,0.3,2.6,1.3,3.2,4.2c0.5-0.5,2.1-1.8,2.6-2.4c-1.6,0-3.2-3.2-1.1-5.3
				c0.8,0.3,2.6,1.1,2.9,3.4c1.1-0.3,2.1-1.8,2.1-2.1c-1.1-0.3-2.1-3.4-1.1-4.7c1.3,0,2.6,1.8,2.9,2.6l1.3-1.8
				c-0.8-0.5-2.4-2.4-1.1-4c1.6,0,2.1,1.3,2.4,2.4c-15.6,30.6-78.9,35.9-111.9,72.8c0,0-3.4,3.7-3.4,5.3v12.4h0.8
				C23.1,348.4,28.4,336.5,39.2,327.8"/>
		</g>
		<g>
			<path class="st0" d="M157.6,250.5c-2.9,0-5,2.4-5,5.3c0,2.9,2.4,5,5.3,5s5-2.4,5-5.3C162.9,252.6,160.5,250.2,157.6,250.5
				 M162.4,255.2c0,2.6-2.1,4.7-4.5,4.7s-4.5-1.8-4.5-4.5c0-2.4,1.8-4.5,4.5-4.5C160.3,251,162.1,252.9,162.4,255.2"/>
		</g>
		<g>
			<polygon class="st0" points="157.1,254.4 157.1,253.9 154.5,253.9 154.5,254.4 155.5,254.4 155.5,257.6 156.1,257.6 156.1,254.4 
							"/>
		</g>
		<g>
			<polygon class="st0" points="160.8,257.6 160.8,253.9 160.3,253.9 159,256 157.9,253.9 157.4,253.9 157.4,257.6 157.9,257.6 
				157.9,255.2 158.7,256.8 159.5,256.8 160.3,255.2 160.3,257.6 			"/>
		</g>
		<g>
			<path class="st0" d="M147.6,374.2h-5.3v-14h5.3c1.6,0,2.9,0.5,3.7,1.3c1.6,1.6,1.6,3.2,1.3,5.3c0,0.3,0,0.8,0,1.1
				c0,1.8,0,3.7-1.3,5.3C150.5,374,149.2,374.2,147.6,374.2 M145.2,371.9h2.1c0.8,0,1.6-0.3,2.1-0.8c0.5-0.5,0.5-1.6,0.5-3.7
				s0-2.9-0.5-3.7c-0.5-0.5-1.1-0.8-2.1-0.8h-2.1V371.9z"/>
		</g>
		<g>
			<path class="st0" d="M88.8,374.2h-9.5v-9.5c0-1.1,0-2.9,0.5-3.4c0.5-0.8,1.1-1.1,2.4-1.1h6.6v2.6h-5c-0.3,0-0.8,0-1.1,0.3
				s-0.3,0.8-0.3,1.3v1.6H88v2.6h-5.5v3.4H89v2.1H88.8z"/>
		</g>
		<g>
			<path class="st0" d="M43.9,360.3h-9.5v9.5c0,1.1,0,2.9,0.5,3.4c0.5,0.8,1.1,1.1,2.4,1.1h6.6v-2.6h-5c-0.3,0-0.8,0-1.1-0.3
				c-0.3-0.3-0.3-0.8-0.3-1.3v-1.6h5.5v-2.6h-5.8v-3.2h6.6V360.3z"/>
		</g>
		<g>
			<path class="st0" d="M107.2,371.9h6.3v2.6h-9.2v-12.4l0,0c0-0.8-0.3-1.3-1.1-1.6l0,0l0,0l0,0h1.8c1.1,0,2.1,0.3,2.1,3.2V371.9z"
				/>
		</g>
		<g>
			<polygon class="st0" points="31.5,374.2 29.1,374.2 23.6,365.8 23.6,374.2 20.7,374.2 20.7,360.3 23.3,360.3 28.6,368.7 
				28.6,360.3 31.5,360.3 			"/>
		</g>
		<g>
			<path class="st0" d="M136.5,366.6v-4.7c0-0.8-0.3-1.1-0.8-1.3l0,0l0,0l0,0h1.6c1.3,0,2.1,1.1,2.1,2.9v11.3h-2.6l-5.3-9v8.4h-2.9
				v-14h2.6l5.5,8.4v-2.1H136.5z"/>
		</g>
		<g>
			<path class="st0" d="M122.3,361.6c-0.3-1.1-0.8-1.3-1.6-1.3h-1.1l-5.3,14.2h2.9l0.8-2.4h5l0.8,2.4h2.9L122.3,361.6z M119.1,369.5
				l1.6-4.7l1.6,4.7H119.1z"/>
		</g>
		<g>
			<path class="st0" d="M98,361.6c-0.3-1.1-0.8-1.3-1.6-1.3h-1.1l-5.3,14.2H93l0.8-2.4h5l0.8,2.4h2.9L98,361.6z M94.8,369.5l1.6-4.7
				l1.6,4.7H94.8z"/>
		</g>
		<g>
			<path class="st0" d="M51,369l2.6-8.7h2.1l2.6,8.7l1.8-8.7h2.9l-3.7,14.2h-2.4l-2.6-8.4l-2.6,8.4h-2.1l-3.2-12.1
				c-0.3-1.3-0.8-1.6-1.6-1.8l0,0l0,0l0,0h1.8c1.3,0,2.1,0.5,2.4,1.8L51,369z"/>
		</g>
		<g>
			<path class="st0" d="M76.1,363.9c0.5-1.1,0.8-2.1,1.1-2.9v-0.8h-9.2v2.6h5.8l-6.1,9.2v2.4h9.5v-2.6h-6.1L76.1,363.9z"/>
		</g>
		<g>
			<polygon class="st1" points="84.8,393 82.4,393 82.4,386.4 80.3,390.6 79,390.6 76.9,386.4 76.9,393 74.5,393 74.5,381.4 
				76.9,381.4 79.8,387.4 82.7,381.4 84.8,381.4 			"/>
		</g>
		<g>
			<path class="st1" d="M33.6,393c-1.3,0-2.4-0.5-3.2-1.3c-1.1-1.1-1.1-2.4-1.1-4.5v-0.3v-0.3c0-1.8,0-3.2,1.1-4.5
				c1.1-0.3,2.1-0.8,3.2-0.8c1.3,0,2.1,0.5,3.2,1.3c1.1,1.1,1.1,2.6,1.1,4.5l0,0l0,0c0,1.8,0,3.4-1.1,4.5
				C36,392.4,34.9,393,33.6,393 M33.6,383.5c-0.5,0-1.1,0.3-1.3,0.5c-0.5,0.5-0.5,0.8-0.5,3.2c0,2.1,0,2.6,0.5,3.2
				c0.3,0.3,0.8,0.5,1.3,0.5s1.1-0.3,1.3-0.5c0.5-0.5,0.5-1.1,0.5-3.2s0-2.6-0.5-3.2C34.7,383.7,34.2,383.5,33.6,383.5"/>
		</g>
		<g>
			<path class="st1" d="M59.2,393h-2.6l-2.1-4.5h-1.6v4.5h-2.4v-11.6H55c2.1,0,3.7,1.3,3.7,3.4c0,1.3-0.8,2.4-2.1,2.9L59.2,393z
				 M52.9,386.4H55c1.1,0,1.6-0.5,1.6-1.3s-0.5-1.3-1.6-1.3h-2.1V386.4z"/>
		</g>
		<g>
			<path class="st1" d="M68.7,393c-1.8,0-3.2-0.5-4.2-1.6l0,0l1.6-1.6l0,0c0.5,0.5,1.6,1.1,2.6,1.1c1.3,0,1.8-0.5,1.8-1.3
				c0-0.3,0-0.8-0.3-0.8c-0.3-0.3-0.5-0.3-1.1-0.3l-1.3-0.3c-1.1-0.3-1.6-0.5-2.1-1.1c-0.5-0.5-0.8-1.3-0.8-2.4c0-2.1,1.6-3.4,4-3.4
				c1.6,0,2.6,0.5,3.7,1.3l0,0l-1.6,1.3l0,0c-0.8-0.8-1.6-0.8-2.4-0.8c-1.1,0-1.6,0.5-1.6,1.3c0,0.3,0,0.5,0.3,0.8
				c0.3,0.3,0.5,0.3,1.1,0.5l1.3,0.3c1.1,0.3,1.6,0.5,2.1,0.8c0.5,0.5,0.8,1.3,0.8,2.4C72.9,391.6,71.1,393,68.7,393"/>
		</g>
		<g>
			<polygon class="st1" points="26,393 23.6,393 23.6,383.5 20.7,383.5 20.7,381.4 28.9,381.4 28.9,383.5 26,383.5 			"/>
		</g>
		<g>
			<path class="st1" d="M43.9,393c-2.4,0-4.2-1.6-4.2-4v-7.7h2.4v7.4c0,1.3,0.8,2.1,1.8,2.1s1.8-0.8,1.8-2.1v-7.4h2.4v7.4
				C48.1,391.1,46.6,393,43.9,393"/>
		</g>
		<g>
			<path class="st1" d="M61.1,384.5v-1.6c0-0.8-0.3-1.1-0.8-1.3l0,0l0,0l0,0h1.3c0.8,0,1.6,0.3,1.6,2.4v9h-2.4L61.1,384.5z"/>
		</g>
		<g>
			<polygon class="st0" points="431.3,269.7 431.8,267.1 429.9,265.3 424.9,268.2 421.8,266.8 419.6,261.3 417.3,261.6 417.5,264.2 
				417,265 415.4,262.4 415.7,260 414.6,256 410.9,252.6 408,252.9 405.9,249.4 403.8,250.8 406.7,253.9 406.7,255 414.6,266.8 
				414.4,271.1 413,275.3 409.9,277.7 410.1,279.5 414.9,281.9 416,284 413.3,289.3 413.8,290.6 415.7,290.6 416.7,291.6 
				419.1,290.3 422.8,284.3 424.9,279.2 424.1,278.2 425.2,275.6 427.6,275.6 427.8,276.9 429.7,275.8 429.4,273.2 430.7,272.4 			
				"/>
		</g>
		<g>
			<path class="st0" d="M390.9,261.3c0-1.6,0.5-2.6,1.8-2.6c1.3,0,1.8,1.1,1.8,2.6v9.8c0,1.6-0.5,2.6-1.8,2.6
				c-1.3,0-1.8-1.1-1.8-2.6V261.3z M381.6,256.3v19.3l6.1,6.1h10l6.1-6.1v-19.3l-6.1-6.1h-10L381.6,256.3z"/>
		</g>
		<g>
			<polygon class="st0" points="396.4,320.1 398,319.9 398,318 399.9,313.5 401.7,308.3 404.1,306.7 406.5,307 407.5,306.7 
				408,305.4 406.5,303.8 407,302.7 409.4,299.8 409.6,297.7 410.9,296.9 412.8,293.5 412.3,292.4 412.5,291.1 412.3,290.6 
				412.5,289.3 410.7,288.5 407.8,290.3 407.8,290.1 408,288.7 407.2,288.2 406.5,288.5 406.2,288.2 406.7,287.2 407,286.6 
				406.7,285.8 403.3,288.5 402,293.8 399.9,294.8 398.8,299.8 390.1,308 387.5,309.1 383.5,314.6 380.9,320.7 382.2,322.8 
				385.3,322 386.1,323 387.7,323 387.7,324.1 390.9,324.4 393.8,322.8 			"/>
		</g>
		<g>
			<path class="st0" d="M428.6,312.8c0,1.6-0.5,2.6-1.8,2.6c-1.3,0-1.8-1.1-1.8-2.6V303c0-1.6,0.5-2.6,1.8-2.6
				c1.3,0,1.8,1.1,1.8,2.6V312.8z M437.9,317.5v-19.3l-6.1-6.1h-10l-6.1,6.1v19.3l6.1,6.1h10L437.9,317.5z"/>
		</g>
		<g>
			<polygon class="st0" points="386.1,324.6 384.8,324.9 385.3,326.7 383.2,329.4 384,329.6 388,328.6 388.8,327 388.2,326.5 			"/>
		</g>
		<g>
			<polygon class="st0" points="270,323.6 286.4,323.6 286.4,250.5 278,250.5 272.4,256 263.2,256 263.2,270.3 270,270.3 			"/>
		</g>
		<g>
			<path class="st0" d="M303,250.5l-10.3,10.3v52.5l10.3,10.3h18.2l10.3-10.3v-52.5l-10.3-10.3C321.2,250.5,303,250.5,303,250.5z
				 M315.2,307.5c0,1.6-1.1,2.9-2.6,2.9h-1.1c-1.3,0-2.6-1.1-2.6-2.9v-41.2c0-1.6,1.1-2.9,2.6-2.9h1.1c1.3,0,2.6,1.1,2.6,2.9V307.5z
				"/>
		</g>
		<g>
			<path class="st0" d="M366.3,323.6l10.3-10.3v-52.5l-10.3-10.3h-18.2l-10.3,10.3v52.5l10.3,10.3H366.3z M353.9,266.3
				c0-1.6,1.1-2.9,2.6-2.9h1.1c1.3,0,2.6,1.1,2.6,2.9v41.2c0,1.6-1.1,2.9-2.6,2.9h-1.1c-1.3,0-2.6-1.1-2.6-2.9
				C353.9,307.5,353.9,266.3,353.9,266.3z"/>
		</g>
		<g>
			<path class="st0" d="M456.6,250.5v73.1h16.4v-25.9h11.9l10.3-10.3v-26.9l-10.3-10.3h-28.2V250.5z M478.7,281.9
				c0,1.6-1.1,2.6-2.6,2.6h-3.4v-21.1h3.4c1.3,0,2.6,1.1,2.6,2.6V281.9z"/>
		</g>
		<g>
			<path class="st0" d="M500.1,250.5v62.8l10.3,10.3h18.2l10.3-10.3v-62.8h-16.4v57c0,1.6-1.1,2.9-2.6,2.9h-1.1
				c-1.3,0-2.6-1.1-2.6-2.9v-57H500.1z"/>
		</g>
		<g>
			<path class="st0" d="M583.8,260.5l-10.3-10.3h-28.2v73.1h16.4v-28h3.4c1.3,0,2.6,1.1,2.6,2.6v18.2l0.8,7.1h16.4l-0.8-7.9v-20.1
				l-7.1-7.1l7.1-7.1v-20.6H583.8z M567.4,279c0,1.6-1.1,2.6-2.6,2.6h-3.2v-18.2h3.4c1.3,0,2.6,1.1,2.6,2.6V279H567.4z"/>
		</g>
		<g>
			<polygon class="st0" points="589.8,323.6 620.7,323.6 620.7,309.6 606.2,309.6 606.2,293.5 619.4,293.5 619.4,279.5 606.2,279.5 
				606.2,264.5 620.7,264.5 620.7,250.5 589.8,250.5 			"/>
		</g>
		<g>
			<polygon class="st0" points="288.2,358.1 287.7,358.1 282.2,334.7 270,334.7 270,392.7 282.2,392.7 282.2,367.6 282.7,367.6 
				289.3,392.7 300.4,392.7 300.4,334.7 288.2,334.7 			"/>
		</g>
		<g>
			<polygon class="st0" points="305.4,392.7 329.9,392.7 329.9,381.6 318.3,381.6 318.3,369 328.9,369 328.9,357.9 318.3,357.9 
				318.3,345.7 329.9,345.7 329.9,334.7 305.4,334.7 			"/>
		</g>
		<g>
			<polygon class="st0" points="393.3,345.7 405.7,345.7 393.5,382.7 393.5,392.7 419.9,392.7 419.9,381.6 407.8,381.6 419.9,345.2 
				419.9,334.7 393.3,334.7 			"/>
		</g>
		<g>
			<polygon class="st0" points="423.9,392.7 448.4,392.7 448.4,381.6 437.1,381.6 437.1,369 447.3,369 447.3,357.9 437.1,357.9 
				437.1,345.7 448.4,345.7 448.4,334.7 423.9,334.7 			"/>
		</g>
		<g>
			<polygon class="st0" points="489.8,334.7 489.8,392.7 513,392.7 513,381.6 502.5,381.6 502.5,334.7 			"/>
		</g>
		<g>
			<polygon class="st0" points="572.7,358.1 572.2,358.1 566.6,334.7 554.5,334.7 554.5,392.7 566.6,392.7 566.6,367.6 567.1,367.6 
				573.7,392.7 584.8,392.7 584.8,334.7 572.7,334.7 			"/>
		</g>
		<g>
			<path class="st0" d="M589.8,392.7h22.4l8.2-8.2v-41.7l-8.2-8.2h-22.4V392.7z M602.8,344.9h2.6c1.1,0,2.1,0.8,2.1,2.1v33.2
				c0,1.3-0.8,2.1-2.1,2.1h-2.6V344.9z"/>
		</g>
		<g>
			<polygon class="st0" points="364.5,361.6 364,361.6 361.3,334.7 351.8,334.7 349.2,361.6 348.4,361.6 345.5,334.7 333.4,334.7 
				340.8,392.7 352.4,392.7 355.8,367.6 356.3,367.6 359.8,392.7 371.4,392.7 378.7,334.7 367.4,334.7 			"/>
		</g>
		<g>
			<path class="st0" d="M460.8,334.7l-9.2,58H464l1.1-9.5h7.7l1.1,9.5h12.9l-9.2-58H460.8z M466.3,372.9l2.4-19h0.5l2.4,19H466.3z"
				/>
		</g>
		<g>
			<path class="st0" d="M525.2,334.7l-9.2,58h12.4l1.1-9.5h7.7l1.1,9.5H551l-9.2-58H525.2z M530.7,372.9l2.4-19h0.5l2.4,19H530.7z"
				/>
		</g>
		<g>
			<rect x="209.6" y="250.5" class="st1" width="3.7" height="142.5"/>
		</g>
	</g>
</g>
</svg>
